<?xml version="1.0" standalone="no"?>
<!DOCTYPE svg PUBLIC "-//W3C//DTD SVG 20010904//EN"
 "http://www.w3.org/TR/2001/REC-SVG-20010904/DTD/svg10.dtd">
<svg version="1.0" xmlns="http://www.w3.org/2000/svg"
 width="300.000000pt" height="300.000000pt" viewBox="0 0 300.000000 300.000000"
 preserveAspectRatio="xMidYMid meet">
<metadata>
Created by potrace 1.10, written by Peter Selinger 2001-2011
</metadata>
<g transform="translate(0.000000,300.000000) scale(0.100000,-0.100000)"
fill="#000000" stroke="none">
<path d="M1200 2185 l0 -45 -40 0 -40 0 0 -44 0 -44 -45 6 -45 5 0 -42 c0 -22
5 -41 10 -41 6 0 10 7 10 15 0 17 46 39 66 31 16 -6 38 19 29 33 -3 6 6 23 20
37 20 20 29 24 35 15 5 -9 15 3 30 33 20 43 25 46 60 46 39 0 55 -12 62 -45 5
-29 49 -41 107 -29 26 5 61 6 77 2 16 -4 78 -11 137 -14 124 -8 140 -26 31
-35 l-69 -5 82 -2 c78 -2 82 -1 85 21 5 33 39 28 58 -8 22 -42 47 -68 59 -61
5 3 13 -3 16 -15 8 -25 54 -68 72 -69 6 0 15 -9 18 -20 9 -29 49 -70 68 -70
10 0 17 -13 21 -37 8 -59 5 -223 -4 -223 -8 0 -17 46 -23 115 -1 11 -9 25 -18
32 -16 12 -179 25 -179 14 0 -11 -84 -4 -88 8 -2 7 -10 8 -20 2 -18 -9 -161
-12 -192 -4 -12 3 -20 14 -20 28 0 23 -34 45 -72 45 -17 0 -20 5 -16 29 4 31
-1 35 -61 50 -16 4 -25 15 -28 30 -6 41 -13 37 -13 -7 l0 -42 40 0 c40 0 40 0
40 -39 0 -39 -1 -40 -37 -43 l-38 -4 28 -12 c15 -6 27 -16 27 -22 0 -13 -46
-24 -61 -14 -7 4 -36 7 -63 5 -28 -1 -103 -4 -166 -6 -134 -5 -153 -16 -159
-89 -1 -4 -10 -6 -20 -3 -11 3 -22 -1 -25 -8 -7 -19 3 -25 41 -25 41 0 42 -14
2 -51 l-31 -29 36 0 36 0 0 85 0 85 518 0 517 0 -3 -85 -3 -85 45 0 46 0 0
-124 c0 -120 1 -124 23 -130 12 -3 32 -6 45 -6 22 0 22 0 22 176 0 157 -2 175
-16 170 -9 -3 -25 -6 -37 -6 l-22 -1 21 -17 c12 -10 25 -28 28 -40 7 -20 4
-22 -28 -22 l-36 0 0 170 0 170 -45 0 -45 0 0 45 0 45 -40 0 -40 0 0 46 0 46
-45 -4 -45 -3 0 42 0 43 -210 0 c-115 0 -210 3 -210 8 0 4 7 16 16 27 12 17
17 18 35 7 18 -11 21 -11 26 6 6 26 39 17 61 -16 l17 -26 6 34 c3 19 4 38 2
42 -2 4 -42 7 -88 7 l-85 0 0 -44 0 -45 -43 0 -42 0 3 45 4 45 -91 0 -91 0 0
-45z m350 -418 c0 -19 -2 -36 -4 -38 -3 -3 -23 -3 -45 -1 -39 4 -41 6 -41 38
0 34 1 34 45 34 44 0 45 0 45 -33z m654 -403 c12 -5 13 -10 4 -30 -14 -29 -24
-30 -38 -4 -17 32 -1 48 34 34z"/>
<path d="M940 2036 c0 -13 3 -32 6 -41 5 -13 10 -10 25 14 10 17 27 31 36 31
15 0 16 2 3 10 -8 5 -27 10 -42 10 -23 0 -28 -4 -28 -24z"/>
<path d="M1292 2008 l-2 -38 -45 0 c-52 0 -61 -17 -12 -22 29 -3 32 -6 31 -35
-1 -22 3 -33 12 -33 10 0 14 13 14 45 0 44 1 45 33 46 29 2 29 2 5 6 -22 3
-28 10 -31 36 -4 31 -4 31 -5 -5z"/>
<path d="M942 1840 l3 -130 -42 0 -43 0 0 -260 0 -260 43 6 43 6 0 -48 -1 -49
38 3 c41 4 41 4 27 -32 -12 -32 -36 -34 -46 -3 -7 21 -7 21 -15 2 -18 -46 -12
-55 36 -55 l45 0 0 -40 0 -40 45 0 45 0 0 40 0 40 -45 0 -45 0 0 130 0 130
-45 0 -45 0 0 170 c0 107 -4 170 -10 170 -5 0 -10 -18 -10 -40 0 -22 -4 -40
-10 -40 -6 0 -10 28 -10 65 0 51 4 66 18 73 9 5 22 7 28 5 12 -4 34 46 34 78
0 10 8 23 18 28 15 9 15 10 -5 11 -20 0 -21 4 -16 63 3 34 10 68 16 75 11 14
34 16 39 3 2 -5 14 -1 27 10 l23 19 -72 0 -72 0 4 -130z m-2 -571 c0 -5 13
-15 29 -20 25 -9 29 -15 29 -49 1 -50 -13 -59 -27 -20 -6 18 -21 34 -38 41
-47 18 -60 59 -18 59 14 0 25 -5 25 -11z"/>
<path d="M860 1775 c0 -14 2 -25 4 -25 2 0 11 11 20 25 16 24 16 25 -4 25 -15
0 -20 -7 -20 -25z"/>
<path d="M1120 1792 c0 -5 18 -8 40 -8 22 0 40 4 40 8 0 4 -18 8 -40 8 -22 0
-40 -4 -40 -8z"/>
<path d="M1320 1793 c14 -3 30 -9 36 -14 6 -5 14 -6 17 -2 16 16 4 23 -35 22
-28 -1 -34 -3 -18 -6z"/>
<path d="M2190 1791 c0 -5 7 -11 15 -14 10 -5 14 -21 13 -62 -1 -31 4 -61 10
-67 9 -9 12 7 12 70 0 81 0 82 -25 82 -14 0 -25 -4 -25 -9z"/>
<path d="M1635 1408 c1 -24 4 -42 8 -40 4 1 23 2 42 2 34 0 35 1 35 40 l0 40
-43 0 -43 0 1 -42z"/>
<path d="M1744 1441 c11 -4 48 -7 83 -6 46 1 64 -3 68 -13 4 -11 8 -12 20 -2
8 7 21 10 29 7 15 -6 28 -55 16 -62 -4 -2 -5 -15 -3 -28 4 -20 0 -25 -24 -30
-15 -3 -32 -2 -37 3 -4 5 -24 6 -44 3 -28 -5 -34 -3 -27 8 6 11 5 12 -6 2 -18
-18 -56 -16 -63 2 -6 17 0 18 81 17 29 0 55 3 58 9 4 5 -31 9 -84 9 l-91 0 0
-40 0 -40 130 0 130 0 0 85 0 85 -127 -1 c-71 0 -119 -4 -109 -8z"/>
<path d="M1030 1329 c0 -29 4 -38 21 -42 11 -3 28 -3 37 0 12 5 11 8 -6 14
-29 11 -28 25 5 42 l27 15 -42 4 -42 4 0 -37z"/>
<path d="M1120 1323 l0 -43 131 0 130 0 -3 40 -3 41 -128 2 -127 2 0 -42z
m209 8 c13 -9 10 -13 -21 -24 -13 -5 -18 -1 -18 13 0 21 16 25 39 11z"/>
<path d="M2030 1361 c-24 -7 -24 -7 -3 -13 14 -4 23 -15 26 -34 3 -22 4 -18 6
14 0 23 0 42 -1 41 -2 -1 -14 -4 -28 -8z"/>
<path d="M1460 1237 l0 -42 45 3 45 4 0 -91 0 -91 39 0 c43 0 59 -21 46 -60
-6 -18 -2 -20 39 -20 l46 0 0 40 0 40 -45 0 -45 0 0 37 c0 39 -8 40 -15 3 -2
-12 -6 -24 -8 -26 -8 -9 -35 23 -41 49 -6 26 -5 27 32 27 l38 0 -5 38 c-5 31
-6 33 -9 10 -5 -42 -31 -44 -48 -3 -19 47 -19 48 20 42 l34 -5 4 44 3 44 -87
0 -88 0 0 -43z m135 2 c18 -17 -10 -26 -55 -16 -41 8 -43 10 -26 23 19 14 62
10 81 -7z"/>
<path d="M2060 1195 l0 -85 45 0 45 0 0 85 0 85 -45 0 -45 0 0 -85z m63 10 c7
-42 0 -65 -19 -65 -10 0 -14 14 -14 48 0 73 22 84 33 17z"/>
<path d="M2224 1255 c-4 -8 -4 -24 -1 -35 4 -15 -1 -22 -20 -26 -22 -6 -23 -8
-9 -16 13 -7 17 -21 15 -56 -1 -26 -4 -53 -7 -59 -7 -21 -32 -15 -42 10 -8 19
-9 17 -9 -15 l-1 -38 45 0 45 0 0 125 c0 119 -4 143 -16 110z"/>
<path d="M1120 1153 l0 -43 73 2 c39 0 57 3 40 5 -31 4 -33 7 -33 41 0 36 -1
37 -40 37 l-40 1 0 -43z"/>
<path d="M1290 1153 l0 -43 45 0 45 0 0 43 0 44 -45 0 -45 0 0 -44z"/>
<path d="M1719 1195 c0 0 -1 -19 -2 -43 l-2 -42 133 0 132 0 0 43 c0 44 0 44
-32 38 -27 -4 -29 -6 -10 -9 31 -5 29 -40 -4 -52 -41 -16 -46 -12 -42 25 4 34
3 35 -32 36 -19 0 -59 1 -88 2 -28 1 -52 2 -53 2z m83 -61 c-7 -13 -11 -13
-33 5 l-24 20 25 9 c29 11 47 -8 32 -34z"/>
<path d="M1445 1139 c-4 -6 -17 -14 -29 -19 -18 -8 -17 -9 12 -9 26 -1 32 3
32 19 0 22 -5 25 -15 9z"/>
<path d="M860 1065 c0 -39 3 -45 20 -45 16 0 19 4 12 18 -5 9 -7 29 -5 45 3
19 -1 27 -12 27 -11 0 -15 -11 -15 -45z"/>
<path d="M1380 980 c0 -40 0 -40 40 -40 40 0 40 0 40 40 0 40 0 40 -40 40 -40
0 -40 0 -40 -40z"/>
<path d="M1980 978 l0 -43 40 0 40 0 0 43 0 42 -40 0 -40 0 0 -42z"/>
<path d="M860 978 l0 -38 43 0 c42 1 42 1 14 13 -16 7 -35 23 -42 37 -14 25
-14 25 -15 -12z"/>
<path d="M1553 945 c0 -38 2 -53 4 -32 2 20 2 52 0 70 -2 17 -4 1 -4 -38z"/>
<path d="M2134 955 c-3 -25 -4 -58 -2 -75 4 -29 3 -30 -31 -30 l-36 -1 28 -15
c46 -25 35 -37 -47 -49 -71 -11 -55 -25 29 -25 l75 0 0 120 c0 66 -2 120 -4
120 -3 0 -8 -20 -12 -45z"/>
<path d="M2224 985 c-4 -9 -18 -22 -33 -30 l-26 -14 38 -1 c35 0 37 2 37 30 0
33 -7 39 -16 15z"/>
<path d="M942 805 l0 -46 48 2 c49 3 61 19 14 19 -29 0 -42 25 -25 51 10 17 8
19 -12 19 -21 0 -24 -5 -25 -45z"/>
<path d="M1460 805 c0 -45 0 -45 35 -45 39 0 48 17 13 22 -35 5 -34 34 2 46
36 13 47 0 36 -43 -6 -24 -5 -25 41 -25 l48 0 0 45 0 45 -87 0 -88 0 0 -45z
m150 -1 c0 -8 -9 -14 -20 -14 -22 0 -28 26 -7 33 16 6 27 -1 27 -19z"/>
<path d="M1958 725 c3 -25 0 -35 -9 -35 -11 0 -11 -2 -1 -8 9 -6 10 -16 3 -34
-10 -27 -43 -44 -60 -33 -6 3 -15 -13 -22 -35 -9 -30 -19 -42 -37 -47 -47 -11
-65 -40 -59 -93 7 -55 -5 -78 -43 -83 -18 -3 -28 -13 -35 -38 -15 -53 -23 -59
-69 -59 -45 0 -60 10 -69 45 -2 11 -5 2 -6 -20 l-1 -40 82 2 83 1 0 44 0 43
44 0 44 0 -2 88 -2 88 45 -6 46 -7 0 46 0 46 45 0 45 0 0 85 c0 63 -3 85 -13
85 -9 0 -12 -11 -9 -35z"/>
<path d="M1030 715 c0 -34 1 -35 40 -35 46 0 51 6 14 20 -14 6 -28 19 -31 30
-9 32 -23 23 -23 -15z"/>
<path d="M2022 714 l-33 -34 36 0 c33 0 35 2 35 35 0 19 -1 35 -2 34 -2 0 -18
-16 -36 -35z"/>
<path d="M1120 648 c0 -55 1 -58 24 -58 31 0 42 16 16 23 -14 4 -20 14 -20 34
0 15 -5 35 -10 43 -7 11 -10 -2 -10 -42z"/>
<path d="M1460 635 c0 -25 4 -45 9 -45 5 0 8 14 7 32 -1 28 3 32 33 40 24 7
36 6 41 -2 6 -9 9 -9 14 -1 4 6 29 11 57 10 27 -1 52 1 56 4 3 4 -44 7 -105 7
l-112 0 0 -45z"/>
<path d="M1812 633 c1 -41 2 -43 5 -13 3 19 9 41 15 47 8 10 6 13 -6 13 -13 0
-16 -10 -14 -47z"/>
<path d="M1207 583 c-4 -3 -7 -23 -7 -44 l0 -37 43 5 c52 7 61 13 19 13 -34 0
-41 7 -44 44 -3 29 -2 28 -11 19z"/>
<path d="M1121 543 c-1 -37 1 -41 19 -36 17 5 18 7 6 17 -8 6 -17 22 -19 36
-3 16 -5 10 -6 -17z"/>
<path d="M1290 378 c0 -73 4 -117 9 -109 5 7 6 22 4 32 -3 11 -1 25 5 32 7 8
8 26 2 50 -4 20 -5 37 -1 37 4 0 5 18 3 40 -2 22 -8 40 -13 40 -5 0 -9 -55 -9
-122z"/>
<path d="M1200 445 c0 -15 6 -25 14 -25 23 0 25 13 4 33 -17 16 -18 16 -18 -8z"/>
<path d="M1380 377 c0 -43 0 -44 33 -38 30 4 31 5 7 11 -38 9 -35 53 5 61 29
6 29 7 -7 8 l-38 1 0 -43z"/>
<path d="M1460 375 l0 -44 33 6 c39 7 48 13 20 13 -24 0 -45 21 -35 36 4 6 22
14 40 17 26 5 32 3 33 -11 0 -10 3 -12 6 -4 2 6 19 12 36 13 18 0 41 4 52 9
13 6 -16 9 -82 9 l-103 1 0 -45z"/>
<path d="M1290 205 l0 -43 43 3 c41 3 42 4 42 40 0 36 -1 37 -42 40 l-43 3 0
-43z m64 17 c8 -13 -11 -35 -23 -28 -16 10 -14 36 3 36 8 0 17 -4 20 -8z"/>
<path d="M1862 228 c9 -7 19 -24 21 -38 3 -18 5 -14 6 13 1 32 -2 37 -21 37
-19 0 -20 -1 -6 -12z"/>
<path d="M1700 223 c0 -24 -32 -43 -73 -43 -46 0 -61 7 -70 30 -3 8 -6 2 -6
-15 l-1 -30 85 0 c78 0 85 2 85 20 0 21 -20 59 -20 38z"/>
<path d="M2126 71 c-17 -6 -17 -8 -3 -14 8 -3 17 -18 20 -34 3 -20 4 -16 6 15
0 23 0 42 -1 41 -2 0 -12 -4 -22 -8z"/>
</g>
</svg>
