 <svg  version="1.0" xmlns="http://www.w3.org/2000/svg"  width="1536.000000pt" height="1536.000000pt" viewBox="0 0 1536.000000 1536.000000"  preserveAspectRatio="xMidYMid meet">  <g transform="translate(0.000000,1536.000000) scale(0.100000,-0.100000)" fill="#000000" stroke="none"> <path d="M5397 11863 c-4 -3 -7 -91 -7 -195 0 -143 -3 -188 -12 -189 -7 -1 -87 -2 -178 -3 l-165 -1 -3 -174 c-1 -108 -7 -180 -13 -188 -9 -10 -54 -13 -191 -13 -136 0 -186 -3 -207 -14 -21 -11 -68 -15 -191 -15 l-163 0 2 -160 c2 -130 -1 -164 -13 -184 -13 -20 -17 -84 -21 -418 -4 -318 -11 -660 -14 -736 -1 -10 -42 -13 -171 -13 -157 0 -170 -1 -180 -19 -14 -27 -14 -2275 0 -2302 10 -18 23 -19 180 -19 93 0 171 -3 173 -7 3 -5 8 -177 12 -383 4 -272 9 -377 18 -382 16 -11 349 -10 365 1 11 6 13 48 11 190 -1 99 1 184 4 188 4 3 7 185 7 404 0 369 -1 397 -17 404 -10 3 -97 5 -193 4 l-175 -2 -7 219 c-10 298 1 924 16 924 6 1 83 1 171 0 117 -1 165 3 177 12 14 12 17 56 25 383 l8 370 1870 -3 c1029 -1 1989 -7 2135 -12 146 -4 340 -9 433 -9 l167 -1 0 -373 0 -372 -172 0 -173 0 0 -186 1 -187 -416 -7 c-228 -4 -571 -4 -762 0 -190 4 -356 4 -367 0 -20 -6 -21 -12 -21 -209 0 -164 3 -206 14 -215 10 -9 63 -12 173 -10 l158 2 3 -164 c1 -94 7 -168 13 -174 6 -6 156 -12 407 -15 l397 -5 3 -173 c2 -133 0 -173 -10 -177 -7 -2 -110 -6 -228 -9 -118 -3 -298 -7 -400 -9 -403 -10 -493 -9 -501 5 -5 7 -9 99 -9 204 l0 192 -25 6 c-14 4 -193 4 -398 0 -325 -5 -374 -8 -384 -22 -15 -18 -19 -368 -5 -389 6 -9 62 -13 202 -15 l195 -3 9 -387 9 -388 183 0 184 0 0 -174 c0 -96 4 -186 10 -200 l10 -26 179 0 c169 0 181 1 191 20 7 12 9 86 8 197 l-3 178 -190 6 c-104 3 -191 6 -192 7 -2 1 -3 87 -3 192 l0 190 26 6 c15 4 227 2 473 -5 245 -6 584 -11 754 -11 l307 0 1 -177 c1 -98 0 -182 -2 -188 -2 -5 -6 -93 -9 -194 l-5 -184 -182 2 c-140 2 -183 -1 -190 -11 -4 -7 -10 -96 -13 -198 l-5 -185 -186 -5 c-157 -4 -190 -8 -206 -22 -17 -16 -18 -31 -16 -170 1 -84 0 -165 -3 -179 l-5 -25 -169 -1 -169 0 1 177 c0 181 -5 210 -40 229 -20 11 -212 12 -527 5 -162 -4 -213 -8 -225 -19 -12 -11 -58 -15 -201 -17 l-184 -3 0 -185 0 -185 185 -4 c250 -6 605 -17 606 -19 0 -1 1 -79 1 -173 1 -132 -2 -172 -12 -176 -8 -2 -98 -6 -202 -9 -103 -2 -273 -6 -378 -8 l-190 -5 -2 -180 -2 -181 184 2 c131 0 189 -3 199 -11 10 -9 66 -12 191 -10 106 1 180 -2 186 -8 7 -7 8 -82 5 -204 -3 -107 -8 -266 -10 -354 -3 -92 -9 -161 -15 -163 -5 -2 -10 12 -9 30 0 18 0 56 0 83 0 28 2 82 4 121 l6 71 -29 6 c-15 3 -94 6 -175 6 l-148 2 0 -166 c0 -129 -3 -167 -13 -171 -8 -3 -97 -7 -198 -9 -101 -2 -267 -8 -368 -12 l-183 -8 -3 -177 c-1 -97 1 -182 5 -188 4 -7 67 -12 176 -15 93 -2 258 -7 367 -10 l197 -6 0 -182 c0 -148 3 -187 15 -205 13 -17 16 -52 14 -179 l-1 -158 361 -3 361 -2 0 168 c0 96 4 172 10 178 5 5 11 93 12 199 l3 190 184 3 c115 1 189 7 198 13 10 9 13 85 13 369 0 197 3 365 6 374 5 14 31 16 189 16 139 0 185 3 194 13 6 9 12 83 13 198 l3 184 190 5 190 5 3 195 c2 140 6 196 15 202 6 5 84 8 172 7 110 -1 160 2 159 10 -1 6 -3 50 -4 99 l-4 87 -5 -90 -6 -90 -152 0 -153 0 0 148 c0 81 1 150 3 155 1 4 73 8 161 9 97 1 163 6 169 12 7 7 79 11 199 11 175 0 188 1 198 19 14 28 12 339 -3 374 l-12 28 -169 2 -169 2 2 375 c2 240 6 379 13 387 6 7 7 21 3 30 -4 10 -8 33 -9 52 -1 26 4 35 22 42 30 11 29 39 -2 39 -22 0 -23 4 -24 55 0 53 0 55 24 49 17 -4 26 -1 30 10 7 19 35 21 52 4 9 -9 17 -8 37 2 21 11 29 11 50 0 22 -12 28 -12 41 2 9 9 14 20 11 25 -3 5 -61 10 -128 11 -67 1 -127 6 -132 11 -18 18 34 22 199 19 134 -3 158 -6 155 -18 -2 -8 -3 -23 -3 -32 0 -10 -3 -20 -9 -23 -5 -4 -9 1 -9 9 0 22 -19 30 -26 11 -4 -10 3 -26 19 -43 25 -26 26 -30 23 -142 -1 -63 -1 -121 2 -127 3 -10 54 -13 208 -13 175 0 205 2 211 15 3 9 2 186 -3 393 l-9 377 -177 3 -178 2 0 190 0 190 174 0 c149 0 175 2 187 17 21 24 21 1492 0 1516 -12 15 -38 17 -187 17 -172 0 -174 0 -178 23 -3 12 -7 269 -10 571 -5 427 -9 551 -18 558 -7 4 -95 8 -195 8 l-183 0 0 183 c0 129 -4 187 -12 195 -8 8 -64 12 -185 12 -95 0 -174 1 -175 3 -1 1 -4 90 -7 197 l-6 195 -190 5 -190 5 -3 169 c-1 104 -7 175 -13 183 -9 10 -122 13 -585 13 -452 0 -574 3 -574 13 -1 6 0 91 0 188 l1 177 -385 7 c-211 4 -389 4 -395 1 -7 -5 -11 -68 -11 -191 l0 -184 -162 -3 c-90 -2 -169 -1 -175 0 -9 3 -13 54 -15 190 l-3 187 -396 3 c-217 1 -398 -1 -402 -5z m-969 -822 c5 -15 29 -14 35 2 3 8 26 12 68 12 l64 0 1 -158 2 -157 -157 2 -156 3 0 150 c0 83 1 153 2 157 5 11 137 0 141 -11z m5210 -2849 l2 -192 -165 0 c-92 0 -174 4 -183 9 -15 8 -17 29 -14 190 l3 181 167 2 c92 2 172 3 177 2 6 0 11 -74 13 -192z m-2890 -3329 c-10 -2 -28 -2 -40 0 -13 2 -5 4 17 4 22 1 32 -1 23 -4z m189 -153 c0 -88 -3 -160 -8 -160 -5 0 -9 20 -9 44 0 51 -27 86 -37 48 -3 -12 -9 -22 -14 -22 -15 0 -10 -30 6 -36 23 -9 18 -24 -9 -24 -28 0 -42 29 -28 57 5 10 7 23 5 29 -2 6 5 14 15 16 16 4 19 13 16 38 -3 27 -2 30 10 21 12 -10 17 -8 25 8 14 25 14 58 1 66 -7 4 -6 13 1 26 7 15 7 24 -2 35 -9 11 -8 14 8 14 18 0 19 -9 20 -160z m-270 78 c-2 -13 -4 -5 -4 17 -1 22 1 32 4 23 2 -10 2 -28 0 -40z m99 -5 c4 -16 12 -31 18 -35 8 -5 7 -8 -1 -8 -7 0 -13 -9 -13 -21 0 -18 -5 -20 -47 -17 l-48 3 3 -32 c2 -27 -2 -33 -18 -33 -24 0 -43 34 -35 60 4 11 18 23 33 27 34 8 47 21 56 56 9 37 43 37 52 0z m114 -23 c0 -11 -7 -20 -15 -20 -8 0 -24 9 -35 20 -20 20 -20 20 15 20 28 0 35 -4 35 -20z m-140 -120 c-26 -26 -18 -40 21 -40 24 0 29 -4 29 -22 -1 -21 -2 -21 -11 -5 -5 9 -16 17 -24 17 -8 0 -19 -8 -24 -17 -9 -15 -10 -14 -11 10 0 15 -6 30 -14 33 -12 5 -12 9 2 24 9 10 25 19 35 19 15 1 15 -1 -3 -19z m-70 -61 c0 -12 -7 -19 -20 -19 -14 0 -20 7 -20 24 0 19 4 23 20 19 11 -3 20 -14 20 -24z m427 -1665 c-2 -20 3 -27 20 -30 19 -3 21 -1 13 26 -8 27 -6 30 15 30 18 0 23 -4 19 -15 -4 -8 1 -17 10 -21 19 -7 21 -35 4 -53 -8 -8 -1 -7 20 3 37 19 41 36 12 54 -36 22 -22 32 46 32 54 0 65 -3 61 -15 -4 -8 -2 -17 3 -20 13 -8 13 -35 0 -35 -5 0 -10 7 -10 15 0 8 -4 15 -9 15 -17 0 -23 -21 -10 -36 17 -21 21 -114 5 -114 -7 0 -22 -11 -34 -25 -14 -16 -27 -22 -39 -18 -14 6 -13 2 4 -16 12 -13 26 -20 32 -17 5 4 12 2 16 -4 3 -5 11 -10 17 -10 7 0 2 9 -10 21 -24 22 -21 39 7 39 9 0 22 5 28 11 9 9 12 7 11 -7 -1 -10 2 -34 6 -52 l8 -33 -89 0 c-48 0 -101 0 -118 0 -145 0 -142 0 -142 26 0 13 6 26 14 29 12 5 11 10 -6 32 -21 27 -26 95 -10 127 6 11 6 24 -1 38 -20 36 -6 49 54 49 53 0 55 -1 53 -26z"/> <path d="M4463 10865 c-3 -9 -3 -19 1 -22 8 -9 37 18 30 28 -8 14 -24 11 -31 -6z"/> <path d="M7059 2888 c-6 -25 -3 -50 8 -59 9 -8 13 -8 13 0 0 6 7 11 15 11 8 0 15 7 15 15 0 18 -16 20 -24 3 -3 -7 -4 -4 -3 6 1 10 -4 21 -10 23 -7 3 -13 3 -14 1z"/> <path d="M7040 2820 c8 -5 16 -20 17 -34 1 -19 -2 -23 -15 -19 -18 7 -13 0 31 -48 21 -23 43 -20 39 5 -3 14 3 17 30 14 27 -2 32 0 30 15 -2 9 2 17 8 17 14 0 13 35 -2 47 -21 17 -83 9 -86 -10 -5 -22 -14 -21 -30 3 -7 11 -18 20 -25 20 -8 0 -7 -4 3 -10z"/> <path d="M7257 2810 c10 -11 22 -20 27 -20 5 0 1 9 -9 20 -10 11 -22 20 -26 20 -5 0 -1 -9 8 -20z"/> <path d="M8920 9468 c0 -19 2 -20 10 -8 13 19 13 30 0 30 -5 0 -10 -10 -10 -22z"/> <path d="M9138 9478 c9 -9 15 -9 24 0 9 9 7 12 -12 12 -19 0 -21 -3 -12 -12z"/> <path d="M9171 9434 c-11 -13 -10 -17 5 -29 11 -8 22 -15 27 -15 13 0 7 18 -8 24 -8 3 -12 12 -9 21 8 19 3 19 -15 -1z"/> <path d="M8920 9401 c0 -12 5 -21 10 -21 6 0 10 6 10 14 0 8 -4 18 -10 21 -5 3 -10 -3 -10 -14z"/> <path d="M9027 9374 c-14 -14 -7 -35 11 -32 9 2 17 10 17 17 0 16 -18 25 -28 15z"/> <path d="M8921 9326 c-1 -29 2 -37 10 -29 8 8 8 19 1 40 -10 28 -10 28 -11 -11z"/> <path d="M8920 9260 c-8 -54 -8 -70 1 -75 15 -10 22 24 11 58 -5 18 -11 25 -12 17z"/> <path d="M9080 9190 c0 -5 7 -10 15 -10 8 0 15 5 15 10 0 6 -7 10 -15 10 -8 0 -15 -4 -15 -10z"/> <path d="M4840 7990 l-195 -5 -3 -172 -2 -173 184 0 c151 0 186 -3 196 -15 11 -13 87 -15 574 -15 308 0 571 3 584 6 l22 6 -2 187 -3 186 -580 0 c-319 1 -668 -2 -775 -5z"/> <path d="M5787 7227 c-16 -11 -17 -32 -15 -202 l3 -190 215 0 215 0 3 189 c2 130 -1 193 -9 202 -16 19 -387 20 -412 1z"/> <path d="M5037 7223 c-4 -3 -7 -91 -7 -195 0 -143 3 -188 13 -188 69 -3 352 2 356 6 3 2 5 84 6 181 0 135 -3 179 -13 190 -10 10 -54 13 -181 13 -92 0 -171 -3 -174 -7z"/> <path d="M9530 6695 c0 -8 9 -15 19 -15 34 0 33 -18 -4 -51 -20 -18 -33 -39 -31 -46 3 -7 1 -15 -4 -18 -6 -4 -10 -11 -10 -17 0 -6 3 -8 7 -5 3 4 14 0 23 -8 16 -15 17 -13 15 29 -3 51 23 88 47 68 10 -8 13 -3 13 24 0 25 -4 34 -17 34 -9 0 -20 5 -23 10 -10 15 -35 12 -35 -5z"/> <path d="M9394 6692 c-29 -19 -25 -116 5 -110 12 3 16 16 16 61 0 58 -2 62 -21 49z"/> <path d="M9440 6660 c0 -11 7 -20 15 -20 8 0 15 9 15 20 0 11 -7 20 -15 20 -8 0 -15 -9 -15 -20z"/> <path d="M9378 6493 c-6 -45 -6 -45 16 -37 10 4 16 18 16 40 0 48 -26 45 -32 -3z"/> <path d="M9595 6470 c-8 -13 4 -32 16 -25 12 8 12 35 0 35 -6 0 -13 -4 -16 -10z"/> <path d="M4638 6268 c-2 -95 -1 -179 1 -185 2 -10 49 -13 192 -13 187 0 189 0 194 23 3 12 4 94 3 182 l-3 160 -192 3 -192 2 -3 -172z"/> <path d="M6193 6428 c-11 -15 -10 -328 1 -346 5 -9 56 -12 181 -12 173 0 175 0 180 23 3 12 4 94 3 182 l-3 160 -176 3 c-134 2 -178 -1 -186 -10z"/> <path d="M9622 6040 c0 -19 2 -27 5 -17 2 9 2 25 0 35 -3 9 -5 1 -5 -18z"/> <path d="M7415 6010 c-32 -6 -43 -35 -13 -35 9 0 20 -4 24 -8 11 -10 44 -9 44 3 0 5 23 9 53 7 43 -2 52 -5 55 -22 4 -33 -73 -61 -84 -30 -8 20 -30 19 -38 -2 -5 -12 -9 -14 -18 -5 -19 19 -44 14 -58 -13 -10 -19 -10 -28 -1 -39 6 -7 11 -18 10 -22 -1 -5 1 -17 6 -27 5 -12 2 -24 -9 -36 -15 -16 -15 -22 -4 -40 16 -27 44 -27 58 -1 9 17 8 20 -10 20 -19 0 -19 1 -2 18 12 13 18 14 20 5 2 -7 9 -13 17 -13 7 0 15 -8 17 -18 4 -16 15 -18 76 -16 39 2 74 -1 77 -6 12 -19 45 -11 45 10 0 11 -7 20 -15 20 -10 0 -15 7 -13 18 2 13 -4 17 -27 17 -21 0 -30 -5 -30 -17 0 -26 -13 -33 -32 -16 -10 9 -28 19 -40 22 -14 4 -23 15 -23 26 0 13 -5 17 -15 14 -9 -4 -15 0 -15 10 0 9 -7 16 -15 16 -8 0 -15 6 -15 14 0 8 -8 17 -17 19 -10 3 -2 5 18 6 28 1 38 -3 42 -18 6 -25 53 -23 51 2 -1 12 6 17 27 17 19 0 29 5 29 15 0 10 9 15 28 14 15 0 21 -3 12 -6 -22 -9 -50 -40 -50 -58 0 -18 36 -20 43 -2 4 10 6 10 6 0 1 -7 10 -13 20 -13 24 0 34 27 36 103 1 44 -2 60 -14 65 -24 12 -120 6 -136 -8 -10 -8 -19 -9 -27 -3 -18 14 -58 20 -93 13z m244 -52 c-1 -16 -3 -18 -6 -6 -2 9 -12 19 -21 21 -12 3 -10 5 6 6 17 1 22 -4 21 -21z"/> <path d="M9622 5900 c0 -19 2 -27 5 -17 2 9 2 25 0 35 -3 9 -5 1 -5 -18z"/> <path d="M8008 5643 c-10 -2 -18 -11 -18 -20 0 -9 6 -13 14 -10 8 3 13 -1 12 -11 0 -9 6 -17 14 -17 8 0 15 7 15 15 0 8 4 20 8 26 5 9 -18 29 -26 23 -1 -1 -10 -3 -19 -6z"/> <path d="M7766 5628 c5 -7 9 -26 9 -43 0 -20 5 -30 15 -30 9 0 14 7 12 17 -2 12 2 16 12 12 12 -5 13 0 7 23 -5 21 -14 29 -35 31 -21 3 -26 0 -20 -10z"/> <path d="M7866 5631 c-10 -16 20 -43 53 -47 29 -3 31 -2 17 12 -9 8 -16 22 -16 30 0 15 -45 20 -54 5z"/> <path d="M8016 5464 c-4 -9 -5 -19 -2 -21 7 -7 46 17 46 27 0 17 -37 11 -44 -6z"/> <path d="M7765 5390 c-7 -12 2 -30 16 -30 5 0 9 9 9 20 0 21 -15 27 -25 10z"/> <path d="M7960 5376 c0 -7 12 -16 28 -19 33 -6 39 -2 22 18 -16 19 -50 20 -50 1z"/> <path d="M9233 5190 c0 -25 2 -35 4 -22 2 12 2 32 0 45 -2 12 -4 2 -4 -23z"/> </g> </svg> 