<?xml version="1.0" standalone="no"?>
<!DOCTYPE svg PUBLIC "-//W3C//DTD SVG 20010904//EN"
 "http://www.w3.org/TR/2001/REC-SVG-20010904/DTD/svg10.dtd">
<svg version="1.0" xmlns="http://www.w3.org/2000/svg"
 width="900.000000pt" height="900.000000pt" viewBox="0 0 900.000000 900.000000"
 preserveAspectRatio="xMidYMid meet">
<metadata>
Created by potrace 1.10, written by Peter Selinger 2001-2011
</metadata>
<g transform="translate(0.000000,900.000000) scale(0.100000,-0.100000)"
fill="#a9a9a9" stroke="none">
<path d="M3603 6669 c-9 -9 -13 -51 -13 -136 l0 -122 -117 -3 -118 -3 -5 -120
-5 -120 -132 -3 c-113 -2 -132 -5 -138 -20 -4 -9 -6 -66 -5 -125 l1 -108 -114
2 c-63 1 -118 -1 -124 -4 -6 -4 -12 -154 -16 -388 -4 -210 -9 -384 -12 -387
-2 -2 -50 -4 -105 -3 -66 1 -107 -2 -116 -10 -12 -10 -14 -128 -14 -768 0
-416 4 -761 8 -768 5 -8 45 -13 117 -15 l110 -3 9 -252 9 -253 31 -5 c17 -3
74 -5 126 -3 l95 3 7 195 c5 107 7 285 5 395 l-2 200 -125 5 -125 5 -8 180
c-4 99 -4 268 0 375 l8 195 115 3 c63 1 118 6 122 10 5 5 19 383 18 491 0 12
201 13 1348 8 741 -4 1431 -7 1535 -7 l187 0 -2 -252 -3 -252 -107 1 c-91 1
-108 -2 -112 -16 -3 -9 -4 -58 -2 -108 1 -51 0 -97 -4 -102 -8 -15 -232 -23
-650 -25 -206 0 -381 -5 -387 -9 -18 -11 -18 -258 -1 -275 8 -8 48 -12 115
-12 l103 0 0 -104 c0 -71 4 -107 13 -114 7 -6 117 -13 271 -16 143 -3 261 -8
264 -10 7 -7 5 -202 -1 -213 -4 -6 -155 -12 -354 -16 -192 -3 -355 -7 -363 -9
-12 -2 -16 20 -20 129 -3 81 -10 137 -17 144 -15 15 -530 2 -540 -14 -11 -19
-3 -261 10 -269 7 -5 62 -8 124 -7 61 1 116 -2 121 -5 7 -4 22 -273 26 -476 1
-25 2 -25 116 -30 l115 -5 3 -122 c3 -157 6 -159 145 -158 62 1 101 6 111 15
13 10 16 37 16 141 l0 129 -52 1 c-29 0 -82 0 -118 0 -36 -1 -70 2 -77 7 -8 5
-13 45 -14 121 -1 90 2 116 14 128 14 14 42 14 264 3 136 -7 364 -12 505 -11
l257 3 3 -117 c2 -64 0 -122 -4 -129 -4 -6 -8 -64 -8 -128 l0 -118 -119 0
c-86 0 -122 -4 -129 -13 -7 -7 -13 -66 -14 -133 l-3 -119 -115 -2 c-175 -4
-160 8 -159 -133 0 -66 -3 -124 -6 -130 -4 -6 -13 -7 -23 -2 -9 5 -56 7 -104
6 l-88 -3 0 123 c0 98 -3 126 -15 136 -19 15 -470 15 -511 0 -14 -6 -79 -10
-145 -10 l-120 0 3 -122 3 -123 245 -8 c135 -4 255 -10 268 -13 22 -4 23 -7
20 -117 l-3 -112 -150 -8 c-82 -5 -199 -9 -260 -10 l-110 -2 -2 -85 c-4 -111
3 -150 25 -150 10 0 25 9 35 21 13 15 24 18 40 13 25 -9 44 -9 72 1 14 4 30
-3 54 -24 33 -30 36 -30 155 -33 l121 -3 3 -112 c2 -87 -1 -120 -13 -143 -9
-17 -20 -28 -26 -24 -18 11 -199 11 -200 -1 0 -5 0 -51 1 -101 1 -64 -3 -94
-12 -101 -8 -6 -112 -13 -253 -18 -132 -3 -244 -10 -248 -14 -4 -4 -6 -59 -5
-122 l3 -114 109 -3 c62 -1 116 -8 123 -14 8 -6 62 -12 126 -14 62 -1 115 -3
118 -3 4 -1 7 -50 7 -111 0 -94 3 -114 21 -138 17 -24 20 -42 18 -116 l-2 -88
120 -3 c66 -2 170 -4 230 -6 l110 -4 -3 95 c-3 74 0 99 12 115 12 15 15 47 16
135 0 63 4 120 8 127 5 8 46 13 122 15 l115 3 10 242 c6 136 14 247 20 252 6
6 62 12 125 13 l115 3 3 119 c1 67 7 126 14 133 7 9 43 13 129 13 l118 0 7 36
c3 19 3 70 0 113 -4 47 -3 88 3 105 l11 27 107 -2 107 -2 -3 94 c-4 119 -11
130 -11 16 0 -101 2 -100 -120 -94 l-75 4 -2 97 -2 98 102 -3 c64 -2 110 2
124 9 13 7 69 12 143 12 l121 0 -3 136 -3 136 -115 1 c-70 1 -114 6 -113 12 2
13 13 412 15 533 1 61 5 96 14 103 10 8 9 14 -7 30 -36 36 -20 44 98 47 l111
3 -1 -43 c0 -24 1 -76 2 -116 l1 -73 133 3 132 3 2 250 c2 141 -1 256 -6 264
-7 12 -36 15 -123 16 l-113 0 0 120 0 120 117 0 c64 0 119 3 122 6 10 10 17
699 9 864 l-8 160 -121 3 -121 3 -6 380 c-4 209 -9 384 -12 389 -4 6 -62 10
-130 10 l-124 0 -3 128 -3 127 -120 5 -120 5 -5 130 -5 130 -130 5 -130 5 3
98 c1 55 -2 106 -8 117 -10 19 -23 20 -380 20 -202 0 -375 3 -384 6 -13 5 -16
25 -16 119 0 63 -3 116 -7 118 -5 3 -117 8 -249 12 -288 9 -266 20 -263 -138
l2 -102 -107 -5 c-58 -3 -111 -3 -116 -2 -6 2 -10 54 -10 122 0 65 -3 121 -7
123 -5 3 -120 8 -258 12 -198 5 -253 4 -262 -6z m2826 -2456 c1 -79 -3 -124
-10 -129 -6 -3 -14 -2 -18 4 -4 7 -50 12 -111 14 l-105 3 0 115 0 115 108 3
c89 2 109 6 114 19 13 34 22 -21 22 -144z m-1968 -2283 c5 0 18 -9 28 -19 19
-19 19 -20 -30 -18 -40 1 -49 4 -49 19 0 10 7 18 15 18 8 0 16 8 16 18 1 16 2
16 6 0 2 -10 9 -18 14 -18z m101 0 c6 0 17 8 24 18 12 15 13 13 14 -20 0 -31
-3 -38 -20 -38 -11 0 -20 7 -20 15 0 8 -7 15 -15 15 -9 0 -15 9 -15 23 1 20 2
20 11 5 5 -10 15 -18 21 -18z m-120 -102 c-9 -9 -15 -9 -24 0 -9 9 -7 12 12
12 19 0 21 -3 12 -12z m419 -488 l-5 -45 -6 42 c-3 23 -4 59 -1 80 l5 38 6
-35 c3 -19 3 -55 1 -80z m14 -649 c6 -11 -29 -26 -72 -30 -20 -2 -15 -29 6
-41 28 -15 33 -13 26 10 -7 24 7 26 28 5 10 -9 14 -30 13 -57 -2 -36 -6 -42
-22 -40 -10 2 -30 15 -45 28 -25 24 -73 32 -84 14 -3 -5 -15 -10 -25 -10 -34
0 -37 61 -4 74 17 7 19 36 2 36 -9 0 -8 4 2 10 19 12 167 13 175 1z"/>
<path d="M2858 6123 c-7 -15 4 -183 12 -183 4 0 7 37 6 83 l-1 82 83 -2 c45
-1 82 3 82 8 0 5 -33 9 -74 9 -41 0 -81 3 -89 6 -8 3 -17 2 -19 -3z"/>
<path d="M5951 5038 c-1 -21 4 -38 9 -38 11 0 11 14 0 50 -7 22 -8 21 -9 -12z"/>
<path d="M5950 4955 c0 -15 4 -24 10 -20 6 3 10 12 10 20 0 8 -4 17 -10 20 -6
4 -10 -5 -10 -20z"/>
<path d="M5950 4900 c0 -19 3 -21 12 -12 9 9 9 15 0 24 -9 9 -12 7 -12 -12z"/>
<path d="M6067 4897 c-4 -10 3 -12 24 -9 16 2 29 8 29 13 0 14 -47 10 -53 -4z"/>
<path d="M3605 4088 c-143 -4 -317 -10 -387 -13 l-128 -6 0 -109 0 -109 128
-6 c70 -3 302 -8 516 -11 309 -3 391 -2 398 8 4 7 8 61 8 120 0 84 -3 110 -16
122 -17 18 -44 18 -519 4z"/>
<path d="M3851 3571 c-15 -28 -14 -234 1 -249 14 -14 255 -17 276 -4 9 7 12
41 10 138 l-3 129 -137 3 c-127 2 -138 1 -147 -17z"/>
<path d="M3355 3558 c-3 -13 -5 -70 -3 -128 l3 -105 114 -3 c64 -1 119 2 124
7 13 13 9 222 -5 238 -7 9 -43 13 -119 13 -104 0 -109 -1 -114 -22z"/>
<path d="M6279 3246 c0 -1 -2 -14 -4 -29 -6 -45 50 -88 63 -49 2 6 -6 19 -17
29 -29 24 -26 36 7 30 61 -12 67 -12 67 3 0 12 -13 15 -57 16 -32 0 -58 0 -59
0z"/>
<path d="M6373 3158 c-11 -14 -13 -48 -3 -48 12 0 30 24 30 42 0 21 -13 24
-27 6z"/>
<path d="M6248 3123 c-21 -5 -24 -43 -4 -43 7 0 16 11 18 25 3 14 5 24 4 24 0
-1 -9 -3 -18 -6z"/>
<path d="M3087 3044 c-12 -13 -8 -219 5 -232 8 -8 52 -12 130 -12 139 0 130
-10 126 145 l-3 100 -126 3 c-69 1 -128 -1 -132 -4z"/>
<path d="M4127 3044 c-12 -13 -8 -219 5 -232 14 -14 205 -17 226 -4 9 6 12 38
10 123 l-3 114 -116 3 c-63 1 -118 -1 -122 -4z"/>
<path d="M6406 2794 c-6 -17 3 -216 10 -223 2 -2 4 50 4 117 0 67 -2 122 -4
122 -2 0 -7 -7 -10 -16z"/>
<path d="M4928 2733 c-2 -4 -3 -35 -2 -68 3 -102 2 -99 18 -86 9 7 28 10 48 6
18 -4 45 -2 60 4 20 8 28 7 32 -5 3 -8 10 -14 16 -14 7 0 8 17 4 49 -3 27 -2
57 4 67 19 35 -1 51 -60 49 -40 -1 -54 -6 -56 -18 -2 -10 -10 -17 -17 -17 -7
0 -16 -8 -19 -17 -2 -10 -4 -3 -3 16 2 31 -16 54 -25 34z m145 -56 c4 3 7 -3
7 -14 0 -17 -5 -21 -26 -18 -16 1 -28 -3 -32 -14 -6 -15 -8 -15 -24 1 -15 15
-15 18 -3 18 8 0 15 6 15 14 0 17 30 26 46 14 6 -4 14 -5 17 -1z"/>
<path d="M5196 2465 c2 -31 0 -64 -5 -74 -7 -13 -6 -24 3 -36 13 -18 42 -12
30 6 -3 5 0 17 7 25 9 12 9 20 -1 39 -11 21 -11 30 0 53 8 15 16 30 18 35 2 4
-10 7 -27 7 l-30 0 5 -55z"/>
<path d="M5280 2505 c7 -9 19 -14 26 -11 8 3 11 0 8 -8 -3 -7 4 -20 14 -29 18
-17 19 -16 19 23 0 40 0 40 -40 40 -34 0 -38 -2 -27 -15z"/>
<path d="M5324 2357 c-7 -19 14 -69 26 -62 18 11 8 75 -11 75 -5 0 -12 -6 -15
-13z"/>
<path d="M5253 2323 c11 -24 26 -31 29 -13 4 29 1 33 -18 35 -19 1 -21 -1 -11
-22z"/>
</g>
</svg>
